HIERARCHY
ROOT Hips
{
	OFFSET	0.00	0.00	0.00
	CHANNELS 6 Xposition Yposition Zposition Zrotation Xrotation Yrotation
	JOINT LeftUpLeg
	{
		OFFSET	 0.126116	-0.014019	-0.065224
		CHANNELS 3 Zrotation Xrotation Yrotation
		JOINT LeftLeg
		{
			OFFSET	 0.000000	 0.000000	 0.569914
			CHANNELS 3 Zrotation Xrotation Yrotation
			JOINT LeftFoot
			{
				OFFSET	 0.000000	 0.000000	 0.544423
				CHANNELS 3 Zrotation Xrotation Yrotation
				JOINT LeftToeBase
				{
					OFFSET	 0.000000	 0.000000	 0.207117
					CHANNELS 3 Zrotation Xrotation Yrotation
					End Site
					{
						OFFSET	 0.000000	 0.000000	 0.207117
					}
				}
			}
		}
	}
	JOINT RightUpLeg
	{
		OFFSET	-0.124023	-0.008373	-0.065224
		CHANNELS 3 Zrotation Xrotation Yrotation
		JOINT RightLeg
		{
			OFFSET	 0.000000	 0.000000	 0.570047
			CHANNELS 3 Zrotation Xrotation Yrotation
			JOINT RightFoot
			{
				OFFSET	 0.000000	 0.000000	 0.544354
				CHANNELS 3 Zrotation Xrotation Yrotation
				JOINT RightToeBase
				{
					OFFSET	 0.000000	 0.000000	 0.207540
					CHANNELS 3 Zrotation Xrotation Yrotation
					End Site
					{
						OFFSET	 0.000000	 0.000000	 0.207540
					}
				}
			}
		}
	}
	JOINT Spine
	{
		OFFSET	 0.000184	-0.007763	 0.117403
		CHANNELS 3 Zrotation Xrotation Yrotation
		JOINT Spine1
		{
			OFFSET	 0.000000	 0.000000	 0.137269
			CHANNELS 3 Zrotation Xrotation Yrotation
			JOINT Spine2
			{
				OFFSET	 0.000000	 0.000000	 0.156879
				CHANNELS 3 Zrotation Xrotation Yrotation
				JOINT LeftShoulder
				{
					OFFSET	 0.080501	-0.002496	 0.160144
					CHANNELS 3 Zrotation Xrotation Yrotation
					JOINT LeftArm
					{
						OFFSET	 0.000000	 0.000000	 0.164363
						CHANNELS 3 Zrotation Xrotation Yrotation
						JOINT LeftForeArm
						{
							OFFSET	 0.000000	 0.000000	 0.364576
							CHANNELS 3 Zrotation Xrotation Yrotation
							JOINT LeftHand
							{
								OFFSET	 0.000000	 0.000000	 0.360812
								CHANNELS 3 Zrotation Xrotation Yrotation
								JOINT LeftHandIndex1
								{
									OFFSET	 0.000000	 0.000000	 0.086006
									CHANNELS 3 Zrotation Xrotation Yrotation
									JOINT LeftHandIndex2
									{
										OFFSET	 0.000000	 0.000000	 0.047236
										CHANNELS 3 Zrotation Xrotation Yrotation
										JOINT LeftHandIndex3
										{
											OFFSET	-0.004284	-0.000551	 0.038166
											CHANNELS 3 Zrotation Xrotation Yrotation
											End Site
											{
												OFFSET	-0.004284	-0.000551	 0.038166
											}
										}
									}
								}
							}
						}
					}
				}
				JOINT Neck
				{
					OFFSET	 0.000000	 0.000000	 0.176489
					CHANNELS 3 Zrotation Xrotation Yrotation
					JOINT Head
					{
						OFFSET	 0.000000	-0.001747	 0.077940
						CHANNELS 3 Zrotation Xrotation Yrotation
						End Site
						{
							OFFSET	 0.000000	-0.001747	 0.077940
						}
					}
				}
				JOINT RightShoulder
				{
					OFFSET	-0.080363	 0.000306	 0.159706
					CHANNELS 3 Zrotation Xrotation Yrotation
					JOINT RightArm
					{
						OFFSET	 0.000000	 0.000000	 0.164196
						CHANNELS 3 Zrotation Xrotation Yrotation
						JOINT RightForeArm
						{
							OFFSET	 0.000000	 0.000000	 0.365611
							CHANNELS 3 Zrotation Xrotation Yrotation
							JOINT RightHand
							{
								OFFSET	 0.000000	 0.000000	 0.360648
								CHANNELS 3 Zrotation Xrotation Yrotation
								JOINT RightHandIndex1
								{
									OFFSET	 0.000000	 0.000000	 0.069977
									CHANNELS 3 Zrotation Xrotation Yrotation
									JOINT RightHandIndex2
									{
										OFFSET	 0.000000	 0.000000	 0.052305
										CHANNELS 3 Zrotation Xrotation Yrotation
										JOINT RightHandIndex3
										{
											OFFSET	 0.009002	-0.000782	 0.042196
											CHANNELS 3 Zrotation Xrotation Yrotation
											End Site
											{
												OFFSET	 0.009002	-0.000782	 0.042196
											}
										}
									}
								}
							}
						}
					}
				}
			}
		}
	}
}
MOTION
Frames:    9
Frame Time: 0.03333334
 2.745706	 6.550825	 0.858595	-96.866630	-2.298652	-1.140748	 7.256420	 20.110050	-176.775600	-3.577115	-11.632960	 1.468872	 3.505962	 84.306260	-0.181916	-2.306417	 39.246070	-0.255602	 4.886327	-35.623630	-177.934200	 1.459887	-44.029990	 5.379913	 104.655500	 89.855980	-98.763560	 2.372134	 30.881240	 0.054878	-3.041020	 3.537286	 2.371978	-4.556923	-1.355340	 0.605828	-5.283193	-3.732461	-1.024770	-91.776180	 78.527400	-180.000000	 35.606660	 60.584180	-53.643960	-8.964499	-4.960535	-35.742930	 3.864331	-2.096937	-5.368610	-3.812334	 37.924440	-2.927599	-2.450526	 36.184240	 0.754587	-1.378229	 35.397820	-2.634230	 1.216068	 2.152590	-4.951072	-0.017550	-9.239120	 3.193014	 89.782120	 78.203870	 180.000000	-38.054390	 71.970070	 35.548920	 0.089115	-6.835916	 22.225940	-13.495270	-3.250259	 9.562787	 6.437017	 35.671460	-0.771858	 2.830251	 35.756010	-7.813440	-2.350882	 35.473990	 5.254307
 2.721797	 6.554446	 0.857753	-96.653720	-2.096353	-1.237702	 7.340203	 21.073830	-176.909100	-3.530831	-11.629490	 1.496396	 3.804711	 84.429580	-0.360194	-2.293449	 40.401630	-0.286445	 5.219726	-35.886910	-177.622800	 0.438461	-41.291120	 4.521621	 131.617900	 89.723750	-126.072500	 2.368086	 31.574890	 0.070515	-3.080222	 3.396813	 2.305475	-4.584152	-1.429673	 0.572673	-5.297577	-3.798687	-1.044012	-91.776180	 78.527400	-180.000000	 35.874120	 60.506840	-54.131610	-9.026565	-4.960370	-36.296510	 3.775211	-2.118635	-5.364660	-3.812334	 37.924440	-2.927599	-2.450526	 36.184240	 0.754587	-1.378229	 35.397820	-2.634230	 1.225835	 2.177794	-4.965440	 0.000352	-9.349045	 3.413552	 89.782120	 78.203930	 180.000000	-37.482220	 72.328730	 34.872530	 0.215554	-6.786509	 21.765270	-13.677660	-3.256822	 9.558207	 6.437017	 35.671460	-0.771858	 2.830251	 35.756010	-7.813440	-2.350882	 35.473990	 5.254307
 2.695872	 6.558457	 0.856817	-96.414250	-1.960134	-1.295762	 7.423691	 22.164480	-177.092100	-3.436952	-11.625150	 1.529750	 4.144597	 84.407520	-0.542781	-2.275419	 41.870670	-0.326972	 5.246966	-36.058430	-177.517600	-0.106738	-39.219700	 3.931776	 149.747100	 89.503860	-144.464600	 2.363428	 32.325330	 0.087640	-3.142558	 3.299550	 2.186895	-4.622757	-1.499636	 0.517297	-5.302576	-3.871003	-1.071727	-91.776180	 78.527400	-180.000000	 36.293350	 60.558870	-54.664420	-9.068450	-4.973379	-36.641910	 3.742681	-2.115938	-5.365222	-3.812334	 37.924440	-2.927599	-2.450526	 36.184240	 0.754587	-1.378229	 35.397820	-2.634230	 1.226807	 2.147631	-4.990325	 0.019387	-9.404097	 3.682169	 89.782070	 78.203930	-180.000000	-36.849280	 72.675560	 34.152200	 0.294066	-6.737636	 21.243950	-13.911950	-3.264428	 9.552735	 6.437017	 35.671460	-0.771858	 2.830251	 35.756010	-7.813440	-2.350882	 35.473990	 5.254307
 2.668561	 6.562722	 0.855874	-96.156080	-1.914346	-1.320227	 7.555300	 23.321040	-177.427200	-3.245074	-11.618750	 1.578169	 4.549011	 84.167890	-0.703772	-2.251964	 43.588890	-0.376405	 5.127184	-36.057060	-177.407000	-0.218173	-38.060380	 3.665545	 153.091700	 89.365420	-147.908600	 2.360498	 32.772810	 0.097955	-3.219892	 3.241594	 2.054076	-4.664249	-1.554200	 0.438341	-5.292104	-3.921706	-1.104910	-91.776180	 78.527400	-180.000000	 36.767690	 60.759200	-55.050300	-9.103405	-4.989626	-36.738020	 3.754642	-2.115353	-5.365312	-3.812334	 37.924440	-2.927599	-2.450526	 36.184240	 0.754587	-1.378229	 35.397820	-2.634230	 1.237281	 2.096092	-5.015780	 0.043232	-9.425417	 3.941565	 89.782090	 78.203830	-180.000000	-36.236510	 72.987820	 33.470330	 0.329177	-6.683239	 20.696740	-14.162550	-3.272727	 9.546592	 6.437017	 35.671460	-0.771858	 2.830251	 35.756010	-7.813440	-2.350882	 35.473990	 5.254307
 2.637890	 6.567905	 0.854860	-95.874440	-1.960804	-1.323476	 7.742191	 24.610530	-177.929800	-2.914372	-11.608960	 1.649486	 5.015910	 83.561150	-0.793136	-2.227399	 45.201820	-0.425062	 4.946873	-35.832690	-177.443300	 0.092127	-37.760700	 3.739581	 150.753800	 89.407520	-145.416800	 2.361960	 32.550650	 0.092834	-3.297476	 3.194349	 1.939775	-4.702327	-1.589790	 0.335447	-5.261021	-3.927201	-1.141218	-91.776180	 78.527420	-180.000000	 37.450210	 61.071210	-55.529270	-9.128530	-4.989502	-36.597450	 3.776342	-2.116019	-5.365145	-3.812334	 37.924440	-2.927599	-2.450526	 36.184240	 0.754587	-1.378229	 35.397820	-2.634230	 1.267838	 2.075355	-5.034804	 0.083128	-9.445792	 4.180422	 89.782120	 78.203930	 180.000000	-35.684150	 73.271120	 32.862140	 0.309908	-6.618986	 20.105000	-14.434320	-3.282237	 9.539404	 6.437017	 35.671460	-0.771858	 2.830251	 35.756010	-7.813440	-2.350882	 35.473990	 5.254307
 2.609050	 6.573151	 0.853884	-95.618400	-2.018027	-1.323187	 7.944844	 25.807520	-178.488800	-2.520169	-11.597640	 1.727765	 5.427208	 82.668910	-0.773077	-2.206802	 46.434340	-0.463875	 4.873156	-35.518820	-177.530200	 0.531187	-38.095540	 4.025632	 135.837200	 89.626750	-130.207800	 2.367058	 31.744180	 0.074368	-3.365987	 3.149385	 1.887173	-4.733767	-1.599106	 0.231605	-5.215066	-3.872496	-1.175337	-91.776180	 78.527400	-180.000000	 38.166930	 61.436200	-55.866840	-9.140027	-4.959418	-36.282470	 3.775849	-2.118456	-5.364656	-3.812334	 37.924440	-2.927599	-2.450526	 36.184240	 0.754587	-1.378229	 35.397820	-2.634230	 1.316867	 2.135399	-5.064053	 0.129453	-9.492464	 4.385287	 89.782120	 78.203870	 180.000000	-35.312860	 73.479350	 32.456200	 0.243510	-6.557268	 19.581730	-14.675150	-3.291228	 9.532381	 6.437017	 35.671460	-0.771858	 2.830251	 35.756010	-7.813440	-2.350882	 35.473990	 5.254307
 2.578510	 6.578907	 0.852935	-95.349950	-2.085456	-1.305871	 8.183362	 27.034200	-179.153700	-2.094883	-11.585780	 1.806558	 5.739275	 81.384410	-0.622609	-2.182323	 47.780640	-0.508075	 4.833483	-34.897920	-177.659200	 1.042181	-38.878890	 4.445476	 73.132690	 89.760150	-67.158780	 2.373864	 30.571330	 0.047944	-3.446764	 3.079746	 1.858564	-4.770993	-1.598718	 0.112882	-5.150493	-3.772051	-1.218478	-91.776180	 78.527400	-180.000000	 38.955150	 61.891650	-56.070590	-9.134560	-4.908683	-35.770520	 3.772118	-2.094187	-5.369178	-3.812334	 37.924440	-2.927599	-2.450526	 36.184240	 0.754587	-1.378229	 35.397820	-2.634230	 1.384140	 2.276905	-5.109553	 0.185715	-9.576701	 4.589070	 89.782090	 78.203830	-180.000000	-34.897510	 73.668270	 31.998380	 0.176949	-6.493823	 19.080500	-14.906230	-3.299790	 9.525342	 6.437017	 35.671460	-0.771858	 2.830251	 35.756010	-7.813440	-2.350882	 35.473990	 5.254307
 2.548395	 6.584763	 0.851909	-95.071840	-2.148438	-1.270536	 8.449903	 28.195720	-179.903000	-1.688340	-11.575090	 1.874846	 5.890251	 79.760800	-0.332532	-2.153571	 49.225040	-0.557796	 4.716224	-34.181340	-177.864300	 1.715715	-39.905430	 4.974373	 23.870690	 89.505440	-17.503780	 2.378375	 29.715490	 0.028958	-3.552777	 2.975465	 1.822069	-4.819189	-1.598124	-0.011740	-5.075035	-3.650993	-1.274798	-91.776180	 78.527400	-180.000000	 39.746340	 62.406300	-56.127390	-9.094393	-4.857977	-35.090440	 3.796919	-2.097764	-5.368541	-3.812334	 37.924440	-2.927599	-2.450526	 36.184240	 0.754587	-1.378229	 35.397820	-2.634230	 1.455848	 2.459777	-5.131024	 0.243208	-9.652921	 4.740472	 89.782120	 78.203930	 180.000000	-34.279410	 73.833680	 31.240640	 0.121115	-6.435391	 18.646570	-15.106310	-3.306679	 9.519276	 6.437017	 35.671460	-0.771858	 2.830251	 35.756010	-7.813440	-2.350882	 35.473990	 5.254307
 2.512659	 6.592001	 0.851036	-94.676410	-2.214654	-1.207450	 8.771584	 29.512080	 179.132700	-1.222656	-11.564440	 1.940284	 5.850996	 77.258800	 0.209074	-2.123843	 50.587300	-0.607113	 4.363202	-33.312810	-178.313800	 2.829575	-41.259530	 5.731394	 8.602638	 88.856870	-1.709209	 2.381170	 29.146740	 0.016481	-3.707350	 2.829324	 1.726120	-4.900644	-1.607002	-0.149239	-4.981781	-3.509886	-1.358428	-91.776180	 78.527380	-180.000000	 40.690740	 63.099190	-56.026100	-8.979989	-4.815497	-34.053330	 3.899601	-2.104109	-5.367168	-3.812334	 37.924440	-2.927599	-2.450526	 36.184240	 0.754587	-1.378229	 35.397820	-2.634230	 1.535805	 2.692324	-5.122471	 0.301218	-9.696585	 4.851265	 89.782120	 78.203930	 180.000000	-33.407940	 73.995630	 30.130470	 0.082940	-6.369816	 18.220880	-15.288100	-3.312866	 9.513808	 6.437017	 35.671460	-0.771858	 2.830251	 35.756010	-7.813440	-2.350882	 35.473990	 5.254307
